<?xml version="1.0" encoding="utf-8"?>
<!-- Generator: Adobe Illustrator 22.1.0, SVG Export Plug-In . SVG Version: 6.00 Build 0)  -->
<svg version="1.1" id="Calque_1" xmlns="http://www.w3.org/2000/svg" xmlns:xlink="http://www.w3.org/1999/xlink" x="0px" y="0px"
	 viewBox="0 0 1103.4 274" style="enable-background:new 0 0 1103.4 274;" xml:space="preserve">
<style type="text/css">
	.st0{fill:#0D3B57;}
	.st1{fill:#00668B;}
	.st2{fill:#FFFFFF;}
	.st3{enable-background:new    ;}
	.st4{font-family:'XBOX360';}
	.st5{font-size:79px;}
	.st6{fill:url(#SVGID_1_);}
	.st7{fill:url(#SVGID_2_);}
</style>
<g>
	<circle class="st0" cx="957.7" cy="137" r="137"/>
</g>
<g>
	<rect x="145.7" class="st0" width="812" height="274"/>
</g>
<g>
	<circle class="st1" cx="145.7" cy="137" r="137"/>
</g>
<g>
	<g id="surface1_1_">
		<path class="st2" d="M173.2,158.4c14.2-0.8,27.3-9.4,37.1-24.2c9.9-15,15.4-35,15.4-56c0.2-2.5-1.9-4.6-4.5-4.6h-20.3
			c0.1-2.3,0.1-4.5,0.1-6.9c0-2.6-2.1-4.7-4.7-4.7H95.4c-2.6,0-4.7,2.1-4.7,4.7c0,2.3,0,4.6,0.1,6.9H69.1c-1.9,0-3.4,1.5-3.4,3.3
			c-0.3,21.6,5.3,42,15.4,57.3c9.8,14.8,22.9,23.4,37.1,24.2c3.2,3.5,6.6,6.4,10.1,8.5v20.9h-12.5c-7,0-12.5,5.7-12.5,12.5v12.5
			h-1.9c-0.6,0-1,0.2-1.4,0.6c-3.8,4.1-1,8.8,2.9,8.8H190c0.6,0,1-0.2,1.4-0.6c3.8-4,1-8.8-2.9-8.8h-0.4v-7.8
			c0-9.6-7.7-17.3-17.3-17.3h-7.8V167C166.6,164.7,170,162,173.2,158.4z M185.6,140c7.9-15.8,12.9-35.6,14.6-57.1h16.4
			c-0.7,17.5-5.6,33.7-13.8,46.1c-5.9,9-13.2,15.1-21.1,18.1C183.1,144.9,184.4,142.5,185.6,140z M88.9,129
			c-8.3-12.4-13.1-28.6-13.8-46h16.3c1.7,21.4,6.8,41.3,14.6,57.1c1.3,2.5,2.6,4.9,3.9,7.1C102.1,144.1,94.9,137.9,88.9,129z"/>
	</g>
</g>
<text transform="matrix(1 0 0 1 393.3139 115.1072)" class="st3"><tspan x="0" y="0" class="st2 st4 st5">DEBLOQUE </tspan><tspan x="-27.8" y="94.8" class="st2 st4 st5">TON SUCCES</tspan></text>
<g>
	
		<linearGradient id="SVGID_1_" gradientUnits="userSpaceOnUse" x1="0.5987" y1="271.5592" x2="0.5987" y2="271.2898" gradientTransform="matrix(232.75 0 0 -233 306.2804 63420.5)">
		<stop  offset="0" style="stop-color:#111D2E"/>
		<stop  offset="0.2125" style="stop-color:#051839"/>
		<stop  offset="0.4069" style="stop-color:#0A1B48"/>
		<stop  offset="0.5811" style="stop-color:#132E62"/>
		<stop  offset="0.7376" style="stop-color:#144B7E"/>
		<stop  offset="0.8728" style="stop-color:#136497"/>
		<stop  offset="1" style="stop-color:#1387B8"/>
	</linearGradient>
	<path class="st6" d="M414.4,187.6c4,12.9,16.5,22.4,31.2,22.4c18,0,32.6-14.1,32.6-31.4c0-17.3-14.6-31.4-32.6-31.4
		c-17.3,0-31.4,12.9-32.5,29.3C415.2,179.9,416,182,414.4,187.6L414.4,187.6z"/>
	<path class="st2" d="M443.9,170.7c0,0.1,0,0.1,0,0.2l-8,11.2c-1.3-0.1-2.6,0.2-3.8,0.6c-0.5,0.2-1,0.5-1.5,0.8l-17.5-6.9
		c0,0-0.4,6.4,1.3,11.2l12.4,4.9c0.6,2.7,2.5,5,5.3,6.2c4.6,1.9,9.9-0.3,11.8-4.7c0.5-1.2,0.7-2.4,0.7-3.6l11.4-7.9
		c0.1,0,0.2,0,0.3,0c6.8,0,12.4-5.4,12.4-11.9c0-6.6-5.5-11.9-12.4-11.9C449.5,158.8,443.9,164.1,443.9,170.7z M442,193.3
		c-1.5,3.4-5.6,5-9.1,3.6c-1.6-0.7-2.9-1.9-3.6-3.3l4,1.6c2.6,1.1,5.6-0.1,6.7-2.7c1.1-2.5-0.1-5.4-2.8-6.5l-4.2-1.7
		c1.6-0.6,3.4-0.6,5.1,0.1c1.7,0.7,3.1,2,3.8,3.6S442.7,191.7,442,193.3 M456.3,178.7c-4.5,0-8.2-3.6-8.2-8c0-4.4,3.7-8,8.2-8
		c4.5,0,8.2,3.6,8.2,8C464.5,175.1,460.8,178.7,456.3,178.7 M450.1,170.7c0-3.3,2.8-6,6.2-6c3.4,0,6.2,2.7,6.2,6c0,3.3-2.8,6-6.2,6
		C452.9,176.7,450.1,174,450.1,170.7z"/>
</g>
<g>
	
		<linearGradient id="SVGID_2_" gradientUnits="userSpaceOnUse" x1="1.4061" y1="271.9653" x2="1.4061" y2="271.6959" gradientTransform="matrix(232.75 0 0 -233 306.2804 63420.5)">
		<stop  offset="0" style="stop-color:#111D2E"/>
		<stop  offset="0.2125" style="stop-color:#051839"/>
		<stop  offset="0.4069" style="stop-color:#0A1B48"/>
		<stop  offset="0.5811" style="stop-color:#132E62"/>
		<stop  offset="0.7376" style="stop-color:#144B7E"/>
		<stop  offset="0.8728" style="stop-color:#136497"/>
		<stop  offset="1" style="stop-color:#1387B8"/>
	</linearGradient>
	<path class="st7" d="M602.3,93c4,12.9,16.5,22.4,31.2,22.4c18,0,32.6-14.1,32.6-31.4c0-17.3-14.6-31.4-32.6-31.4
		c-17.3,0-31.4,12.9-32.5,29.3C603.1,85.3,603.9,87.4,602.3,93L602.3,93z"/>
	<path class="st2" d="M631.8,76.1c0,0.1,0,0.1,0,0.2l-8,11.2c-1.3-0.1-2.6,0.2-3.8,0.6c-0.5,0.2-1,0.5-1.5,0.8L601,81.9
		c0,0-0.4,6.4,1.3,11.2l12.4,4.9c0.6,2.7,2.5,5,5.3,6.2c4.6,1.9,9.9-0.3,11.8-4.7c0.5-1.2,0.7-2.4,0.7-3.6l11.4-7.9
		c0.1,0,0.2,0,0.3,0c6.8,0,12.4-5.4,12.4-11.9c0-6.6-5.5-11.9-12.4-11.9C637.4,64.2,631.8,69.5,631.8,76.1z M629.9,98.7
		c-1.5,3.4-5.6,5-9.1,3.6c-1.6-0.7-2.9-1.9-3.6-3.3l4,1.6c2.6,1.1,5.6-0.1,6.7-2.7c1.1-2.5-0.1-5.4-2.8-6.5l-4.2-1.7
		c1.6-0.6,3.4-0.6,5.1,0.1c1.7,0.7,3.1,2,3.8,3.6C630.6,95.2,630.6,97.1,629.9,98.7 M644.2,84.1c-4.5,0-8.2-3.6-8.2-8
		c0-4.4,3.7-8,8.2-8c4.5,0,8.2,3.6,8.2,8C652.4,80.5,648.7,84.1,644.2,84.1 M638,76.1c0-3.3,2.8-6,6.2-6c3.4,0,6.2,2.7,6.2,6
		c0,3.3-2.8,6-6.2,6C640.8,82.1,638,79.4,638,76.1z"/>
</g>
</svg>
